<svg viewBox="0 0 440 440" fill="none" xmlns="http://www.w3.org/2000/svg">
<path d="M242.991 0L219.992 6.60742L197.009 0L175.868 11.2671L152.016 9.61896L133.677 25.0512L110.004 28.4224L95.2457 47.3606L72.7865 55.6012L62.2835 77.2064L42.0118 89.9717L36.1985 113.3L19.0282 130.021L18.1592 154.053L4.80948 174.01L8.92975 197.698L0 219.992L8.92975 242.302L4.80948 265.99L18.1592 285.947L19.0282 309.964L36.1985 326.7L42.0118 350.013L62.2835 362.779L72.7865 384.384L95.2457 392.639L110.004 411.563L133.677 414.949L152.016 430.381L175.868 428.733L197.009 440L219.992 433.393L242.991 440L264.117 428.733L287.984 430.381L306.323 414.949L329.996 411.563L344.739 392.639L367.199 384.384L377.716 362.779L397.973 350.013L403.787 326.7L420.972 309.964L421.841 285.947L435.19 265.99L431.07 242.302L440 219.992L431.07 197.698L435.19 174.01L421.841 154.053L420.972 130.021L403.787 113.3L397.973 89.9717L377.716 77.2064L367.199 55.6012L344.739 47.3606L329.996 28.4224L306.323 25.0512L287.984 9.61896L264.117 11.2671L242.991 0Z" fill="#E7E2E1"/>
</svg>
